# xmcd
#
# Track frame offsets:
# 150
# 11037
# 28978
# 40225
# 52320
# 67748
# 83670
# 95924
# 106172
# 119741
# 136294
# 145913
# 161256
# 174842
# 184759
# 199626
#
# Disc length: 2841 seconds
#
#
# Revision: 0
# Processed by: cddbd v1.5.1PL0 Copyright (c) Steve Scherf et al.
# Submitted via: FreeRIP 2.931 
#
DISCID=dc0b1710
DTITLE=Bing Bank Boys - I'm Feelin' Good
DYEAR=2002
DGENRE=Folk
TTITLE0=Georgia Stomp
TTITLE1=That's a Habit
TTITLE2=I'm Feeling Good
TTITLE3=Wait Till You Hear This, Boys
TTITLE4=Uncle Bill
TTITLE5=Crazy 'Bout My Chevrolet
TTITLE6=Someday Sweetheart
TTITLE7=Lonesome Blues
TTITLE8=The Creole Belle
TTITLE9=Farmland Blues
TTITLE10=Combination Rag
TTITLE11=When the Sun Goes Down
TTITLE12=I Wonder Where She Went Blues
TTITLE13=Tanner's Rag
TTITLE14=Over In The Gloryland
TTITLE15=Don't You Remember The Time
EXTD=
EXTT0=
EXTT1=
EXTT2=
EXTT3=
EXTT4=
EXTT5=
EXTT6=
EXTT7=
EXTT8=
EXTT9=
EXTT10=
EXTT11=
EXTT12=
EXTT13=
EXTT14=
EXTT15=
PLAYORDER=
